HIERARCHY
ROOT hip
{
  OFFSET 0 90.174 2.4664
  CHANNELS 6 Xposition Yposition Zposition Zrotation Xrotation Yrotation
  JOINT abdomen
  {
    OFFSET 0 -1.186 -1.5018
    CHANNELS 6 Xposition Yposition Zposition Zrotation Xrotation Yrotation
    JOINT abdomen2
    {
      OFFSET 0 9.964 0.2134
      CHANNELS 6 Xposition Yposition Zposition Zrotation Xrotation Yrotation
      JOINT chest
      {
        OFFSET 0 13.134 -3.2573
        CHANNELS 6 Xposition Yposition Zposition Zrotation Xrotation Yrotation
        JOINT neck
        {
          OFFSET 0 20.686 -1.6905
          CHANNELS 6 Xposition Yposition Zposition Zrotation Xrotation Yrotation
          JOINT head
          {
            OFFSET 0 7.238 -0.1237
            CHANNELS 6 Xposition Yposition Zposition Zrotation Xrotation Yrotation
            End Site
            {
              OFFSET 0 0 0
            }
          }
        }
        JOINT lCollar
        {
          OFFSET 1.7069 20.075 5.0056
          CHANNELS 6 Xposition Yposition Zposition Zrotation Xrotation Yrotation
          JOINT lShldr
          {
            OFFSET 13.6458 -0.047 -4.849
            CHANNELS 6 Xposition Yposition Zposition Zrotation Xrotation Yrotation
            JOINT lForeArm
            {
              OFFSET 28.3255 -0.9759 2.2888
              CHANNELS 6 Xposition Yposition Zposition Zrotation Xrotation Yrotation
              JOINT lHand
              {
                OFFSET 22.1583 -0.53 10.8316
                CHANNELS 6 Xposition Yposition Zposition Zrotation Xrotation Yrotation
                JOINT lThumb1
                {
                  OFFSET 0.786 0.112 2.5817
                  CHANNELS 6 Xposition Yposition Zposition Zrotation Xrotation Yrotation
                  JOINT lThumb2
                  {
                    OFFSET 0.3601 -0.878 4.2331
                    CHANNELS 6 Xposition Yposition Zposition Zrotation Xrotation Yrotation
                    JOINT lThumb2_End
                    {
                      OFFSET 1.8127 -1.216 2.2227
                      CHANNELS 6 Xposition Yposition Zposition Zrotation Xrotation Yrotation
                      End Site
                      {
                        OFFSET 0.0181 -0.0122 0.0222
                      }
                    }
                  }
                }
                JOINT lCarpal1
                {
                  OFFSET 0.9571 1.114 1.7695
                  CHANNELS 6 Xposition Yposition Zposition Zrotation Xrotation Yrotation
                  JOINT lIndex1
                  {
                    OFFSET 4.1246 0.487 4.1451
                    CHANNELS 6 Xposition Yposition Zposition Zrotation Xrotation Yrotation
                    JOINT lIndex2
                    {
                      OFFSET 3.4052 -1.454 2.7682
                      CHANNELS 6 Xposition Yposition Zposition Zrotation Xrotation Yrotation
                      JOINT lIndex2_End
                      {
                        OFFSET 1.4531 -1.795 1.2713
                        CHANNELS 6 Xposition Yposition Zposition Zrotation Xrotation Yrotation
                        End Site
                        {
                          OFFSET 0.0145 -0.0179 0.0127
                        }
                      }
                    }
                  }
                  JOINT lMid1
                  {
                    OFFSET 5.6954 0.21 2.1184
                    CHANNELS 6 Xposition Yposition Zposition Zrotation Xrotation Yrotation
                    JOINT lMid2
                    {
                      OFFSET 3.9766 -1.54 2.3863
                      CHANNELS 6 Xposition Yposition Zposition Zrotation Xrotation Yrotation
                      JOINT lMid2_End
                      {
                        OFFSET 1.4042 -1.926 1.125
                        CHANNELS 6 Xposition Yposition Zposition Zrotation Xrotation Yrotation
                        End Site
                        {
                          OFFSET 0.014 -0.0193 0.0113
                        }
                      }
                    }
                  }
                }
                JOINT lCarpal2
                {
                  OFFSET 2.0956 0.66 -0.3894
                  CHANNELS 6 Xposition Yposition Zposition Zrotation Xrotation Yrotation
                  JOINT lRing1
                  {
                    OFFSET 5.0395 -0.09 2.4971
                    CHANNELS 6 Xposition Yposition Zposition Zrotation Xrotation Yrotation
                    JOINT lRing2
                    {
                      OFFSET 3.7921 -1.552 1.4806
                      CHANNELS 6 Xposition Yposition Zposition Zrotation Xrotation Yrotation
                      JOINT lRing2_End
                      {
                        OFFSET 1.4655 -1.808 0.9609
                        CHANNELS 6 Xposition Yposition Zposition Zrotation Xrotation Yrotation
                        End Site
                        {
                          OFFSET 0.0147 -0.0181 0.0096
                        }
                      }
                    }
                  }
                  JOINT lPinky1
                  {
                    OFFSET 4.9141 -1.269 0.3591
                    CHANNELS 6 Xposition Yposition Zposition Zrotation Xrotation Yrotation
                    JOINT lPinky2
                    {
                      OFFSET 3.1477 -1.685 0.8462
                      CHANNELS 6 Xposition Yposition Zposition Zrotation Xrotation Yrotation
                      JOINT lPinky2_End
                      {
                        OFFSET 0.8055 -1.585 0.7955
                        CHANNELS 6 Xposition Yposition Zposition Zrotation Xrotation Yrotation
                        End Site
                        {
                          OFFSET 0.0081 -0.0158 0.008
                        }
                      }
                    }
                  }
                }
              }
            }
          }
        }
        JOINT rCollar
        {
          OFFSET -1.7069 20.075 5.0056
          CHANNELS 6 Xposition Yposition Zposition Zrotation Xrotation Yrotation
          JOINT rShldr
          {
            OFFSET -13.6458 -0.047 -4.849
            CHANNELS 6 Xposition Yposition Zposition Zrotation Xrotation Yrotation
            JOINT rForeArm
            {
              OFFSET -28.3255 -0.9759 2.2888
              CHANNELS 6 Xposition Yposition Zposition Zrotation Xrotation Yrotation
              JOINT rHand
              {
                OFFSET -22.1583 -0.53 10.8316
                CHANNELS 6 Xposition Yposition Zposition Zrotation Xrotation Yrotation
                JOINT rThumb1
                {
                  OFFSET -0.786 0.112 2.5817
                  CHANNELS 6 Xposition Yposition Zposition Zrotation Xrotation Yrotation
                  JOINT rThumb2
                  {
                    OFFSET -0.3601 -0.878 4.2331
                    CHANNELS 6 Xposition Yposition Zposition Zrotation Xrotation Yrotation
                    JOINT rThumb2_End
                    {
                      OFFSET -1.8127 -1.216 2.2227
                      CHANNELS 6 Xposition Yposition Zposition Zrotation Xrotation Yrotation
                      End Site
                      {
                        OFFSET -0.0181 -0.0122 0.0222
                      }
                    }
                  }
                }
                JOINT rCarpal1
                {
                  OFFSET -0.9571 1.114 1.7695
                  CHANNELS 6 Xposition Yposition Zposition Zrotation Xrotation Yrotation
                  JOINT rIndex1
                  {
                    OFFSET -4.1246 0.487 4.1451
                    CHANNELS 6 Xposition Yposition Zposition Zrotation Xrotation Yrotation
                    JOINT rIndex2
                    {
                      OFFSET -3.4052 -1.454 2.7682
                      CHANNELS 6 Xposition Yposition Zposition Zrotation Xrotation Yrotation
                      JOINT rIndex2_End
                      {
                        OFFSET -1.4531 -1.795 1.2713
                        CHANNELS 6 Xposition Yposition Zposition Zrotation Xrotation Yrotation
                        End Site
                        {
                          OFFSET -0.0145 -0.018 0.0127
                        }
                      }
                    }
                  }
                  JOINT rMid1
                  {
                    OFFSET -5.6954 0.21 2.1184
                    CHANNELS 6 Xposition Yposition Zposition Zrotation Xrotation Yrotation
                    JOINT rMid2
                    {
                      OFFSET -3.9766 -1.54 2.3863
                      CHANNELS 6 Xposition Yposition Zposition Zrotation Xrotation Yrotation
                      JOINT rMid2_End
                      {
                        OFFSET -1.4042 -1.926 1.125
                        CHANNELS 6 Xposition Yposition Zposition Zrotation Xrotation Yrotation
                        End Site
                        {
                          OFFSET -0.014 -0.0193 0.0113
                        }
                      }
                    }
                  }
                }
                JOINT rCarpal2
                {
                  OFFSET -2.0956 0.66 -0.3894
                  CHANNELS 6 Xposition Yposition Zposition Zrotation Xrotation Yrotation
                  JOINT rRing1
                  {
                    OFFSET -5.0395 -0.09 2.4971
                    CHANNELS 6 Xposition Yposition Zposition Zrotation Xrotation Yrotation
                    JOINT rRing2
                    {
                      OFFSET -3.7921 -1.552 1.4806
                      CHANNELS 6 Xposition Yposition Zposition Zrotation Xrotation Yrotation
                      JOINT rRing2_End
                      {
                        OFFSET -1.4655 -1.808 0.9609
                        CHANNELS 6 Xposition Yposition Zposition Zrotation Xrotation Yrotation
                        End Site
                        {
                          OFFSET -0.0147 -0.0181 0.0096
                        }
                      }
                    }
                  }
                  JOINT rPinky1
                  {
                    OFFSET -4.9141 -1.269 0.3592
                    CHANNELS 6 Xposition Yposition Zposition Zrotation Xrotation Yrotation
                    JOINT rPinky2
                    {
                      OFFSET -3.1477 -1.685 0.8462
                      CHANNELS 6 Xposition Yposition Zposition Zrotation Xrotation Yrotation
                      JOINT rPinky2_End
                      {
                        OFFSET -0.8055 -1.585 0.7955
                        CHANNELS 6 Xposition Yposition Zposition Zrotation Xrotation Yrotation
                        End Site
                        {
                          OFFSET -0.0081 -0.0158 0.008
                        }
                      }
                    }
                  }
                }
              }
            }
          }
        }
      }
    }
  }
  JOINT lThigh
  {
    OFFSET 8.367 -8.2066 0.5982
    CHANNELS 6 Xposition Yposition Zposition Zrotation Xrotation Yrotation
    JOINT lShin
    {
      OFFSET 2.1923 -43.463 -0.4932
      CHANNELS 6 Xposition Yposition Zposition Zrotation Xrotation Yrotation
      JOINT lFoot
      {
        OFFSET 0.7333 -45.8593 -2.6451
        CHANNELS 6 Xposition Yposition Zposition Zrotation Xrotation Yrotation
        End Site
        {
          OFFSET 2.6618 -4.2699 12.3931
        }
      }
    }
  }
  JOINT rThigh
  {
    OFFSET -8.367 -8.2066 0.5982
    CHANNELS 6 Xposition Yposition Zposition Zrotation Xrotation Yrotation
    JOINT rShin
    {
      OFFSET -2.1923 -43.463 -0.4931
      CHANNELS 6 Xposition Yposition Zposition Zrotation Xrotation Yrotation
      JOINT rFoot
      {
        OFFSET -0.7333 -45.8593 -2.6451
        CHANNELS 6 Xposition Yposition Zposition Zrotation Xrotation Yrotation
        End Site
        {
          OFFSET -2.6618 -4.2699 12.3931
        }
      }
    }
  }
}
MOTION
Frames:	4
Frame Time:	0.0333333
-46.5485 43.0081 26.4095 -99.585 -89.9887 -99.5739 7.10543e-015 -1.186 -1.5018 -0.220006 3.25135 -0.404066 -7.10543e-015 9.964 0.2134 -0.418009 6.50419 -0.797534 0 13.134 -3.2573 -0.418008 6.50417 -0.797533 0 20.686 -1.6905 -7.83983e-005 -19.7149 -3.79056e-005 7.10543e-015 7.238 -0.1237 6.58525e-007 -0.904322 6.64713e-007 1.7069 20.075 5.0056 7.10265 -34.6267 -14.077 13.6458 -0.047 -4.849 -89.8761 -20.4208 -63.8672 28.3255 -0.9759 2.2888 -14.5773 -5.01926 -96.6616 22.1583 -0.53 10.8316 -31.8501 -5.17222 -13.7518 0.786 0.112 2.5817 2.04164e-006 1.49083e-006 6.49316e-007 0.3601 -0.878 4.2331 1.05245e-006 8.66703e-007 9.58772e-007 1.8127 -1.216 2.2227 6.32684e-008 2.42572e-007 1.26823e-006 0.9571 1.114 1.7695 3.18055e-015 -7.95139e-016 -6.36111e-015 4.1246 0.487 4.1451 2.04164e-006 1.49083e-006 6.49316e-007 3.4052 -1.454 2.7682 1.05245e-006 8.66703e-007 9.58772e-007 1.4531 -1.795 1.2713 6.32684e-008 2.42572e-007 1.26823e-006 5.6954 0.21 2.1184 2.04164e-006 1.49083e-006 6.49316e-007 3.9766 -1.54 2.3863 1.05245e-006 8.66703e-007 9.58772e-007 1.4042 -1.926 1.125 6.32684e-008 2.42572e-007 1.26823e-006 2.0956 0.66 -0.3894 3.18055e-015 -7.95139e-016 -6.36111e-015 5.0395 -0.09 2.4971 2.04164e-006 1.49083e-006 6.49316e-007 3.7921 -1.552 1.4806 1.05245e-006 8.66703e-007 9.58772e-007 1.4655 -1.808 0.9609 6.32684e-008 2.42572e-007 1.26823e-006 4.9141 -1.269 0.3591 2.04164e-006 1.49083e-006 6.49316e-007 3.1477 -1.685 0.8462 1.05245e-006 8.66703e-007 9.58772e-007 0.8055 -1.585 0.7955 6.32684e-008 2.42572e-007 1.26823e-006 -1.7069 20.075 5.0056 -7.45223 -34.7498 13.9071 -13.6458 -0.047 -4.849 87.7818 -26.1266 57.5784 -28.3255 -0.9759 2.2888 14.8015 -7.05505 95.5244 -22.1583 -0.53 10.8316 24.6341 -10.097 12.222 -0.786 0.112 2.5817 -3.18055e-015 -6.5102e-015 -9.93923e-016 -0.3601 -0.878 4.2331 -1.39659e-032 -4.02539e-015 -1.98785e-016 -1.8127 -1.216 2.2227 3.18055e-015 -3.42904e-015 -9.93923e-016 -0.9571 1.114 1.7695 -3.18055e-015 -1.73937e-015 -9.93923e-016 -4.1246 0.487 4.1451 -6.36111e-015 -3.15819e-014 8.64713e-015 -3.4052 -1.454 2.7682 -3.18055e-015 -5.54112e-015 -8.94531e-016 -1.4531 -1.795 1.2713 -4.88806e-032 -1.56543e-015 -1.78906e-015 -5.6954 0.21 2.1184 -6.36111e-015 -3.15819e-014 8.64713e-015 -3.9766 -1.54 2.3863 -3.18055e-015 -5.54112e-015 -8.94531e-016 -1.4042 -1.926 1.125 -4.88806e-032 -1.56543e-015 -1.78906e-015 -2.0956 0.66 -0.3894 -3.18055e-015 -1.73937e-015 -9.93923e-016 -5.0395 -0.09 2.4971 -6.36111e-015 -3.15819e-014 8.64713e-015 -3.7921 -1.552 1.4806 -3.18055e-015 -5.54112e-015 -8.94531e-016 -1.4655 -1.808 0.9609 -4.88806e-032 -1.56543e-015 -1.78906e-015 -4.9141 -1.269 0.3592 -6.36111e-015 -3.15819e-014 8.64713e-015 -3.1477 -1.685 0.8462 -3.18055e-015 -5.54112e-015 -8.94531e-016 -0.8055 -1.585 0.7955 -4.88806e-032 -1.56543e-015 -1.78906e-015 8.367 -8.2066 0.5982 0.386505 -34.6435 -3.31358 2.1923 -43.463 -0.4932 30.1718 81.7777 -26.1035 0.7333 -45.8593 -2.6451 -15.3666 41.0494 19.4081 -8.367 -8.2066 0.5982 -5.15931 -35.1885 -3.28227 -2.1923 -43.463 -0.4931 -30.5336 81.7838 26.5956 -0.7333 -45.8593 -2.6451 8.62143 43.0351 -13.9228 
-46.5484 42.9622 26.4132 -99.585 -89.9887 -99.5739 7.10543e-015 -1.186 -1.5018 -0.22052 3.2847 -0.403681 -7.10543e-015 9.964 0.2134 -0.418845 6.57081 -0.796643 -7.10543e-015 13.134 -3.2573 -0.418844 6.57084 -0.796643 7.10543e-015 20.686 -1.6905 3.58436e-005 -19.517 1.66036e-005 0 7.238 -0.1237 5.01153e-008 -1.49956 2.8087e-007 1.7069 20.075 5.0056 7.31641 -34.7554 -13.8698 13.6458 -0.047 -4.849 -89.7778 -20.5309 -63.6413 28.3255 -0.9759 2.2888 -14.5773 -5.01927 -96.6617 22.1583 -0.53 10.8316 -31.7483 -5.31497 -13.6534 0.786 0.112 2.5817 -1.05577e-006 -8.62856e-007 -9.57176e-007 0.3601 -0.878 4.2331 -0 0 6.36111e-015 1.8127 -1.216 2.2227 -3.18055e-015 -2.38542e-015 5.56597e-015 0.9571 1.114 1.7695 -3.18055e-015 0 -0 4.1246 0.487 4.1451 -1.05577e-006 -8.62856e-007 -9.57176e-007 3.4052 -1.454 2.7682 -3.18055e-015 -7.95139e-016 7.15625e-015 1.4531 -1.795 1.2713 -3.18055e-015 -3.18055e-015 1.59028e-015 5.6954 0.21 2.1184 -1.05577e-006 -8.62856e-007 -9.57176e-007 3.9766 -1.54 2.3863 -3.18055e-015 -7.95139e-016 7.15625e-015 1.4042 -1.926 1.125 -3.18055e-015 -3.18055e-015 1.59028e-015 2.0956 0.66 -0.3894 -3.18055e-015 0 -0 5.0395 -0.09 2.4971 -1.05577e-006 -8.62856e-007 -9.57176e-007 3.7921 -1.552 1.4806 -3.18055e-015 -7.95139e-016 7.15625e-015 1.4655 -1.808 0.9609 -3.18055e-015 -3.18055e-015 1.59028e-015 4.9141 -1.269 0.3591 -1.05577e-006 -8.62856e-007 -9.57176e-007 3.1477 -1.685 0.8462 -3.18055e-015 -7.95139e-016 7.15625e-015 0.8055 -1.585 0.7955 -3.18055e-015 -3.18055e-015 1.59028e-015 -1.7069 20.075 5.0056 -7.65503 -34.8733 13.7047 -13.6458 -0.047 -4.849 87.5292 -26.0244 57.3971 -28.3255 -0.9759 2.2888 14.8015 -7.05505 95.5243 -22.1583 -0.53 10.8316 24.5324 -10.2315 12.1098 -0.786 0.112 2.5817 2.12963e-006 -1.64513e-006 1.77549e-006 -0.3601 -0.878 4.2331 1.27222e-014 5.8393e-015 -7.95139e-016 -1.8127 -1.216 2.2227 9.54166e-015 7.15625e-015 9.93923e-017 -0.9571 1.114 1.7695 -6.36111e-015 3.75206e-015 -2.5842e-015 -4.1246 0.487 4.1451 2.12963e-006 -1.64513e-006 1.77549e-006 -3.4052 -1.454 2.7682 1.27222e-014 5.86415e-015 -6.95746e-016 -1.4531 -1.795 1.2713 9.54166e-015 6.92019e-015 -1.39149e-015 -5.6954 0.21 2.1184 2.12963e-006 -1.64513e-006 1.77549e-006 -3.9766 -1.54 2.3863 1.27222e-014 5.86415e-015 -6.95746e-016 -1.4042 -1.926 1.125 9.54166e-015 6.92019e-015 -1.39149e-015 -2.0956 0.66 -0.3894 -6.36111e-015 3.75206e-015 -2.5842e-015 -5.0395 -0.09 2.4971 2.12963e-006 -1.64513e-006 1.77549e-006 -3.7921 -1.552 1.4806 1.27222e-014 5.86415e-015 -6.95746e-016 -1.4655 -1.808 0.9609 9.54166e-015 6.92019e-015 -1.39149e-015 -4.9141 -1.269 0.3592 2.12963e-006 -1.64513e-006 1.77549e-006 -3.1477 -1.685 0.8462 1.27222e-014 5.86415e-015 -6.95746e-016 -0.8055 -1.585 0.7955 9.54166e-015 6.92019e-015 -1.39149e-015 8.367 -8.2066 0.5982 0.788384 -34.7651 -2.75668 2.1923 -43.463 -0.4932 30.1821 81.7818 -26.1247 0.7333 -45.8593 -2.6451 -14.7398 41.0888 18.8853 -8.367 -8.2066 0.5982 -5.40163 -35.2582 -3.61079 -2.1923 -43.463 -0.4931 -30.5312 81.7841 26.6013 -0.7333 -45.8593 -2.6451 8.23364 42.9868 -13.5922 
-46.5484 42.9162 26.417 -99.585 -89.9887 -99.5739 0 -1.186 -1.5018 -0.221033 3.31796 -0.403293 0 9.964 0.2134 -0.419679 6.63745 -0.795743 0 13.134 -3.2573 -0.419679 6.63742 -0.795744 0 20.686 -1.6905 -3.95419e-006 -19.316 -5.6471e-006 7.10543e-015 7.238 -0.1237 -4.00998e-007 -2.09518 -3.52908e-007 1.7069 20.075 5.0056 7.53107 -34.8833 -13.6616 13.6458 -0.047 -4.849 -89.6789 -20.6406 -63.415 28.3255 -0.9759 2.2888 -14.5773 -5.01928 -96.6616 22.1583 -0.53 10.8316 -31.6462 -5.45754 -13.5547 0.786 0.112 2.5817 3.18055e-015 5.56597e-015 -0 0.3601 -0.878 4.2331 1.05907e-006 8.59002e-007 9.55571e-007 1.8127 -1.216 2.2227 9.54166e-015 3.57812e-015 6.36111e-015 0.9571 1.114 1.7695 3.18055e-015 5.56597e-015 -0 4.1246 0.487 4.1451 -6.36111e-015 7.95139e-015 1.27222e-014 3.4052 -1.454 2.7682 1.05907e-006 8.59002e-007 9.55571e-007 1.4531 -1.795 1.2713 9.54166e-015 2.38542e-015 7.15625e-015 5.6954 0.21 2.1184 -6.36111e-015 7.95139e-015 1.27222e-014 3.9766 -1.54 2.3863 1.05907e-006 8.59002e-007 9.55571e-007 1.4042 -1.926 1.125 9.54166e-015 2.38542e-015 7.15625e-015 2.0956 0.66 -0.3894 3.18055e-015 5.56597e-015 -0 5.0395 -0.09 2.4971 -6.36111e-015 7.95139e-015 1.27222e-014 3.7921 -1.552 1.4806 1.05907e-006 8.59002e-007 9.55571e-007 1.4655 -1.808 0.9609 9.54166e-015 2.38542e-015 7.15625e-015 4.9141 -1.269 0.3591 -6.36111e-015 7.95139e-015 1.27222e-014 3.1477 -1.685 0.8462 1.05907e-006 8.59002e-007 9.55571e-007 0.8055 -1.585 0.7955 9.54166e-015 2.38542e-015 7.15625e-015 -1.7069 20.075 5.0056 -7.85869 -34.9961 13.5015 -13.6458 -0.047 -4.849 87.2772 -25.9214 57.2165 -28.3255 -0.9759 2.2888 14.8015 -7.05505 95.5243 -22.1583 -0.53 10.8316 24.4304 -10.3659 11.9974 -0.786 0.112 2.5817 -3.18055e-015 1.26104e-015 3.60297e-016 -0.3601 -0.878 4.2331 -7.92989e-033 1.26104e-015 3.60297e-016 -1.8127 -1.216 2.2227 6.71084e-033 -3.29237e-016 1.16786e-015 -0.9571 1.114 1.7695 9.6177e-033 1.26725e-015 -4.34841e-016 -4.1246 0.487 4.1451 3.21365e-030 -2.23198e-014 8.24956e-015 -3.4052 -1.454 2.7682 -6.36111e-015 3.12465e-015 -4.84538e-016 -1.4531 -1.795 1.2713 -6.36111e-015 3.12465e-015 1.11816e-015 -5.6954 0.21 2.1184 3.21365e-030 -2.23198e-014 8.24956e-015 -3.9766 -1.54 2.3863 -6.36111e-015 3.12465e-015 -4.84538e-016 -1.4042 -1.926 1.125 -6.36111e-015 3.12465e-015 1.11816e-015 -2.0956 0.66 -0.3894 9.6177e-033 1.26725e-015 -4.34841e-016 -5.0395 -0.09 2.4971 3.21365e-030 -2.23198e-014 8.24956e-015 -3.7921 -1.552 1.4806 -6.36111e-015 3.12465e-015 -4.84538e-016 -1.4655 -1.808 0.9609 -6.36111e-015 3.12465e-015 1.11816e-015 -4.9141 -1.269 0.3592 3.21365e-030 -2.23198e-014 8.24956e-015 -3.1477 -1.685 0.8462 -6.36111e-015 3.12465e-015 -4.84538e-016 -0.8055 -1.585 0.7955 -6.36111e-015 3.12465e-015 1.11816e-015 8.367 -8.2066 0.5982 1.19354 -34.8756 -2.19672 2.1923 -43.463 -0.4932 30.1666 81.7789 -26.1204 0.7333 -45.8593 -2.6451 -14.1119 41.124 18.3614 -8.367 -8.2066 0.5982 -5.64484 -35.326 -3.94012 -2.1923 -43.463 -0.4931 -30.5257 81.7837 26.604 -0.7333 -45.8593 -2.6451 7.84646 42.937 -13.2623 
-46.5483 42.8702 26.4208 -99.585 -89.9887 -99.5739 7.10543e-015 -1.186 -1.5018 -0.221546 3.3513 -0.402905 -7.10543e-015 9.964 0.2134 -0.420516 6.7041 -0.794846 0 13.134 -3.2573 -0.420516 6.70407 -0.794846 0 20.686 -1.6905 -6.52526e-005 -19.1152 -2.78222e-005 0 7.238 -0.1237 2.09577e-007 -2.69118 -2.07195e-007 1.7069 20.075 5.0056 7.74668 -35.0107 -13.4525 13.6458 -0.047 -4.849 -89.5794 -20.75 -63.1883 28.3255 -0.9759 2.2888 -14.5773 -5.01928 -96.6616 22.1583 -0.53 10.8316 -31.5438 -5.59994 -13.4557 0.786 0.112 2.5817 3.18055e-015 -3.18055e-015 2.38542e-015 0.3601 -0.878 4.2331 2.12467e-006 1.71028e-006 1.90791e-006 1.8127 -1.216 2.2227 -3.18055e-015 -1.98785e-015 -2.38542e-015 0.9571 1.114 1.7695 1.48969e-031 -3.57812e-015 2.38542e-015 4.1246 0.487 4.1451 -3.06215e-030 1.47101e-014 1.19271e-014 3.4052 -1.454 2.7682 2.12467e-006 1.71028e-006 1.90791e-006 1.4531 -1.795 1.2713 0 3.97569e-016 -0 5.6954 0.21 2.1184 -3.06215e-030 1.47101e-014 1.19271e-014 3.9766 -1.54 2.3863 2.12467e-006 1.71028e-006 1.90791e-006 1.4042 -1.926 1.125 0 3.97569e-016 -0 2.0956 0.66 -0.3894 1.48969e-031 -3.57812e-015 2.38542e-015 5.0395 -0.09 2.4971 -3.06215e-030 1.47101e-014 1.19271e-014 3.7921 -1.552 1.4806 2.12467e-006 1.71028e-006 1.90791e-006 1.4655 -1.808 0.9609 0 3.97569e-016 -0 4.9141 -1.269 0.3591 -3.06215e-030 1.47101e-014 1.19271e-014 3.1477 -1.685 0.8462 2.12467e-006 1.71028e-006 1.90791e-006 0.8055 -1.585 0.7955 0 3.97569e-016 -0 -1.7069 20.075 5.0056 -8.06319 -35.1184 13.2974 -13.6458 -0.047 -4.849 87.0258 -25.8178 57.0365 -28.3255 -0.9759 2.2888 14.8015 -7.05506 95.5243 -22.1583 -0.53 10.8316 24.3281 -10.5001 11.8846 -0.786 0.112 2.5817 -4.2269e-006 5.04629e-006 -3.51632e-008 -0.3601 -0.878 4.2331 3.18055e-015 5.86415e-015 -1.83876e-015 -1.8127 -1.216 2.2227 -2.14591e-006 1.62813e-006 -1.77056e-006 -0.9571 1.114 1.7695 2.06902e-033 -5.96354e-016 1.98785e-016 -4.1246 0.487 4.1451 -4.2269e-006 5.04629e-006 -3.51632e-008 -3.4052 -1.454 2.7682 6.36111e-015 3.75206e-015 -9.44227e-016 -1.4531 -1.795 1.2713 -2.14591e-006 1.62813e-006 -1.77056e-006 -5.6954 0.21 2.1184 -4.2269e-006 5.04629e-006 -3.51632e-008 -3.9766 -1.54 2.3863 6.36111e-015 3.75206e-015 -9.44227e-016 -1.4042 -1.926 1.125 -2.14591e-006 1.62813e-006 -1.77056e-006 -2.0956 0.66 -0.3894 2.06902e-033 -5.96354e-016 1.98785e-016 -5.0395 -0.09 2.4971 -4.2269e-006 5.04629e-006 -3.51632e-008 -3.7921 -1.552 1.4806 6.36111e-015 3.75206e-015 -9.44227e-016 -1.4655 -1.808 0.9609 -2.14591e-006 1.62813e-006 -1.77056e-006 -4.9141 -1.269 0.3592 -4.2269e-006 5.04629e-006 -3.51632e-008 -3.1477 -1.685 0.8462 6.36111e-015 3.75206e-015 -9.44227e-016 -0.8055 -1.585 0.7955 -2.14591e-006 1.62813e-006 -1.77056e-006 8.367 -8.2066 0.5982 1.59925 -34.9924 -1.63612 2.1923 -43.463 -0.4932 30.1818 81.7844 -26.1465 0.7333 -45.8593 -2.6451 -13.483 41.155 17.8367 -8.367 -8.2066 0.5982 -5.88854 -35.3935 -4.26998 -2.1923 -43.463 -0.4931 -30.5234 81.7841 26.6099 -0.7333 -45.8593 -2.6451 7.45992 42.8855 -12.9331 
